<?xml version="1.0" encoding="utf-8"?>
<!-- Svg Vector Icons : http://www.onlinewebfonts.com/icon -->
<!DOCTYPE svg PUBLIC "-//W3C//DTD SVG 1.1//EN" "http://www.w3.org/Graphics/SVG/1.1/DTD/svg11.dtd">
<svg version="1.1" xmlns="http://www.w3.org/2000/svg" xmlns:xlink="http://www.w3.org/1999/xlink" x="0px" y="0px" viewBox="0 0 256 256" enable-background="new 0 0 256 256" xml:space="preserve">
<metadata> Svg Vector Icons : http://www.onlinewebfonts.com/icon </metadata>
<g><g><g><path fill="#000000" d="M105.3,10.9c-4,1-6.7,2.7-14.4,8.6c-7.3,5.6-11.7,7.9-17.8,9l-4.8,0.9l3.3,2.4c7.4,5.5,18.9,8.6,28.3,7.8c6.3-0.5,14.4-3,16.2-5c1.2-1.3,1.2-1.7-0.4-7.8c-1.9-7.3-2-8.9-0.5-13c0.8-2.2,0.8-3,0.1-3.4C114,9.7,109.1,9.9,105.3,10.9z"/><path fill="#000000" d="M128.2,24.6c5.6,25.5,8.3,42.6,10.3,62.2c1.2,13.2,1.2,56.7,0,68.9c-1.2,11.2-4,28-5.9,35.5l-1.4,5.6l4.2-3.4c26-21,53.6-31.9,80.8-32.1l10-0.1l0.4-5.9c0.3-3.3,0.1-10.5-0.3-16c-4.7-56-34.8-95.3-86.5-112.8c-3.8-1.3-8.1-2.6-9.4-2.9C128,22.9,127.9,23,128.2,24.6z"/><path fill="#000000" d="M117.9,63.6c-14.5,44.4-38.2,88.1-64.8,119.8c-2.8,3.3-5,6.2-4.8,6.3c0.5,0.5,16.4,3.4,22.6,4.1c15.2,1.8,36.5,0.5,46.4-2.9c3.7-1.3,3.8-1.4,4.7-5.3c1.6-6.8,4.5-28.4,5.4-39.7c1.2-16,0.4-51.3-1.5-65.4c-1.4-10.4-4.2-25.9-4.7-26.4C121.1,54,119.6,58.3,117.9,63.6z"/><path fill="#000000" d="M221.1,179.6c-24.2,14.7-57.4,23.9-103.3,28.5c-15.5,1.5-59.6,2.2-77.2,1.1c-7.6-0.4-14-0.7-14.2-0.4c-1,1,1.5,10.5,3.9,15.5c1.8,3.8,3.9,6.4,7,9.3l4.4,4l-5.5,0.5l-5.6,0.5v3.6v3.6h3.5c5.7,0,13.2-2,18.8-5l5.2-2.8l4,2.4c11.1,6.7,24.8,6.8,36.8,0.4l5.3-2.8l3.8,2.3c6.2,3.7,11.4,5.1,19.3,5c7.7,0,14.8-2.1,20.1-5.6l2.8-1.9l3.4,2.1c11.6,7.2,27.7,7.3,38.9,0.4l4-2.5l3.4,2.1c5,3.1,11.2,5.1,17.7,5.6l5.6,0.4v-3.7v-3.7l-4.5-0.5c-2.6-0.2-5.9-0.8-7.3-1.2l-2.7-0.8l3.7-4.5c9.1-11.4,17.5-34.1,17.5-47.5c0-4.3-1.3-8-2.8-7.8C226.8,176.3,224.1,177.8,221.1,179.6z"/></g></g></g>
</svg>